<svg xmlns="http://www.w3.org/2000/svg" viewBox="0 0 1002.65 368.38"><defs><style>.cls-1{fill:#293d8b;}.cls-2{fill:#ff9300;}</style></defs><g id="Capa_2" data-name="Capa 2"><g id="Capa_1-2" data-name="Capa 1"><path class="cls-1" d="M346.45,163.63,316.9,128a64.11,64.11,0,0,0-16.14-13.9L251.25,84.11a139.15,139.15,0,0,1-4.49,13.72l46.3,27.4L176,195,59.27,125.38,106,97.85a133,133,0,0,1-4.81-13.34L52,114.32a64,64,0,0,0-15.49,13.15L5.61,163.63a26.87,26.87,0,0,0-1.26,31.09,27.19,27.19,0,0,0,9.42,8.73l24,13.87v59.8a26.86,26.86,0,0,0,13.39,23.2L162.87,364.8a26.85,26.85,0,0,0,26.79,0l111.68-64.48a26.79,26.79,0,0,0,13.4-23.2V217.06l23.31-13.46a27.92,27.92,0,0,0,10.86-10.91A26.85,26.85,0,0,0,346.45,163.63ZM133.61,243.81a12,12,0,0,1-15.54,2.93l-97.34-56.2A12.14,12.14,0,0,1,17.2,172.6l29.28-37.78,118,70.38Zm166.47,33.31A12.18,12.18,0,0,1,294,287.63L182.33,352.11a12.08,12.08,0,0,1-6,1.61c.23-52.87.28-113.71.3-138.78L207,253a26.66,26.66,0,0,0,34.32,6.47l58.75-33.92Zm37.1-94.75a12,12,0,0,1-5.84,8.17L234,246.74a12,12,0,0,1-15.54-2.93L187.58,205.2l118-70.38,29.28,37.78A12,12,0,0,1,337.18,182.37Z"/><path class="cls-2" d="M176,0a63.59,63.59,0,0,0-63.58,63.58c0,35.12,49.76,102.29,63.58,102.29,19.36,0,63.59-67.17,63.59-102.29A63.59,63.59,0,0,0,176,0Zm0,93.3A23.33,23.33,0,1,1,199.36,70,23.32,23.32,0,0,1,176,93.3Z"/><path class="cls-1" d="M487.17,119.1a26.76,26.76,0,0,1-3.41,13,29.55,29.55,0,0,1-9.57,10.41A35,35,0,0,1,459.83,148v.31q19,4,19,23.67a28.91,28.91,0,0,1-5.94,18.19q-5.92,7.7-16.81,11.56t-26,3.87a72.87,72.87,0,0,1-30.1-6,.42.42,0,0,1-.23-.47l5.1-23.81a.39.39,0,0,1,.58-.26q12.09,6.63,23.43,6.63,8.12,0,12.9-3.18a9.91,9.91,0,0,0,4.79-8.69q0-5.2-3.91-7.7t-12.4-2.49h-9.7a.4.4,0,0,1-.39-.48L425,135.88a.41.41,0,0,1,.39-.32h12.47q8,0,12.48-2.83a9.18,9.18,0,0,0,4.52-8.27q0-8.65-13.18-8.66A52.65,52.65,0,0,0,421,120.4a.39.39,0,0,1-.55-.43l4.7-23.23a.4.4,0,0,1,.29-.31,103,103,0,0,1,15-3.49,94.12,94.12,0,0,1,13.36-1q16.17,0,24.74,7T487.17,119.1Z"/><path class="cls-1" d="M504.12,203.17l17.24-81.74a.41.41,0,0,0-.45-.49l-21.75,3.28a.41.41,0,0,1-.46-.49l5.11-23.66a.39.39,0,0,1,.34-.31l55.67-7.7a.4.4,0,0,1,.45.48L536.71,203.33a.4.4,0,0,1-.39.32h-31.8A.4.4,0,0,1,504.12,203.17Z"/><path class="cls-1" d="M669.82,119.71H639.38a.4.4,0,0,0-.39.32l-17.56,83.3a.41.41,0,0,1-.4.32H588.62a.4.4,0,0,1-.4-.48l17.49-83a.41.41,0,0,0-.4-.49H575.6a.41.41,0,0,1-.4-.49l5.27-25.08a.4.4,0,0,1,.39-.32h94.23a.4.4,0,0,1,.39.49l-5.26,25.08A.41.41,0,0,1,669.82,119.71Z"/><path class="cls-1" d="M725.14,153.18H725a18.36,18.36,0,0,0-8.35-1.91q-8,0-12.9,4.59t-7.47,15.78l-6.67,31.69a.41.41,0,0,1-.4.32H657.4a.4.4,0,0,1-.4-.48l10.55-49.53q3.69-17.19,4.86-28.07a.39.39,0,0,1,.4-.35h31.27a.4.4,0,0,1,.41.45q-.82,7.21-1.94,14.64h.3q4.53-8.73,9.77-12.87a19.21,19.21,0,0,1,12.22-4.13,28.72,28.72,0,0,1,6.49.89.44.44,0,0,1,.31.5Z"/><path class="cls-1" d="M810.68,203.65H779.17a.38.38,0,0,1-.4-.38q.08-2.86,1.14-13.55h-.31Q768,205.56,753.41,205.57q-11.56,0-17.89-8t-6.32-22.6a54.93,54.93,0,0,1,4-20.52,46.78,46.78,0,0,1,11.1-16.86,49.33,49.33,0,0,1,17.39-10.49,69.29,69.29,0,0,1,23.78-3.75A170.15,170.15,0,0,1,823.86,128a.41.41,0,0,1,.31.49l-10.1,47.63A123.39,123.39,0,0,0,812,189.87q-.86,8.06-.88,13.4A.38.38,0,0,1,810.68,203.65Zm-22.35-59.12a19.42,19.42,0,0,0-4.67-.47,18.43,18.43,0,0,0-11,3.53,24.51,24.51,0,0,0-7.93,10.57,35.57,35.57,0,0,0-3,14.09c0,3.07.66,5.4,2,7a6.12,6.12,0,0,0,4.9,2.41q5.52,0,9.88-6.24t6.89-17.88Z"/><path class="cls-1" d="M894.87,150.21a21.47,21.47,0,0,0-8.62-2.75c-7.73-.94-15.76,1.5-20.71,7.52a21.75,21.75,0,0,0-4.91,14.28q0,12.41,13,12.41a34.6,34.6,0,0,0,8.19-1.11,33.25,33.25,0,0,0,7.39-2.71.39.39,0,0,1,.57.43l-4.32,21.27a.41.41,0,0,1-.22.29,47.85,47.85,0,0,1-11.88,4.27,58.15,58.15,0,0,1-12.6,1.46q-15.24,0-23.94-8.62t-8.69-23.7A50,50,0,0,1,834.78,148a47.19,47.19,0,0,1,18.43-18.11,53.75,53.75,0,0,1,26.57-6.55q12.35,0,20.55,4a.41.41,0,0,1,.21.47L895.45,150A.38.38,0,0,1,894.87,150.21Z"/><path class="cls-1" d="M971.47,164,986,203.11a.4.4,0,0,1-.38.54H950.86a.41.41,0,0,1-.39-.29l-11.25-39.23h-.31l-8.35,39.2a.41.41,0,0,1-.4.32h-31.8a.4.4,0,0,1-.4-.48L922.53,87.86a.4.4,0,0,1,.39-.32h31.81a.4.4,0,0,1,.39.49l-15.6,73.27h.39l25.54-35.91a.4.4,0,0,1,.32-.17h36.47a.41.41,0,0,1,.32.66l-31,37.77A.37.37,0,0,0,971.47,164Z"/><path class="cls-2" d="M436.16,290.22A14.71,14.71,0,0,1,430.84,302q-5.32,4.53-14,4.52-7.59,0-12.41-3.94a12.61,12.61,0,0,1-4.82-10.23,14.94,14.94,0,0,1,5.28-11.94q5.28-4.53,14.09-4.52,7.74,0,12.45,4A12.93,12.93,0,0,1,436.16,290.22Z"/><path class="cls-2" d="M518.5,251.18a21.37,21.37,0,0,0-8.62-2.76c-7.73-.94-15.77,1.5-20.72,7.52a21.8,21.8,0,0,0-4.9,14.29q0,12.4,13,12.4a34.63,34.63,0,0,0,8.2-1.1,33.44,33.44,0,0,0,7.39-2.72.39.39,0,0,1,.56.43l-4.31,21.28a.46.46,0,0,1-.22.29A48.55,48.55,0,0,1,497,305.08a58.12,58.12,0,0,1-12.6,1.45q-15.26,0-23.94-8.61t-8.69-23.71a50.07,50.07,0,0,1,6.62-25.28,47.37,47.37,0,0,1,18.42-18.11,53.79,53.79,0,0,1,26.58-6.55q12.34,0,20.54,4a.43.43,0,0,1,.22.47l-5.09,22.2A.38.38,0,0,1,518.5,251.18Z"/><path class="cls-2" d="M613.47,258.82a51.76,51.76,0,0,1-6.16,25.08,39.91,39.91,0,0,1-17.2,17q-11,5.64-25.88,5.63-18.16,0-28.08-9.11t-9.91-25.58a52.8,52.8,0,0,1,3.52-18.92,43.91,43.91,0,0,1,9.8-15.59A41.8,41.8,0,0,1,555,227.64a60.53,60.53,0,0,1,21-3.37q17.91,0,27.72,9T613.47,258.82Zm-32.47,0q0-5.22-2.22-7.93a7.34,7.34,0,0,0-6-2.72,9.91,9.91,0,0,0-7.35,3.26,22.39,22.39,0,0,0-4.94,9,38.8,38.8,0,0,0-1.8,11.75c0,3.48.75,6.09,2.26,7.85a7.57,7.57,0,0,0,6.09,2.64c4.18,0,7.56-2.24,10.11-6.73S581,265.71,581,258.82Z"/><path class="cls-2" d="M762.06,243.58a62.58,62.58,0,0,1-1.68,13.32l-10,47.4a.41.41,0,0,1-.39.32H718.21a.4.4,0,0,1-.39-.49L727,261.19a34.2,34.2,0,0,0,1.23-7.89q0-5.13-5.21-5.13-2.54,0-5.86,2.57a24,24,0,0,0-5.86,6.74,27.26,27.26,0,0,0-3.45,8.54L700,304.3a.41.41,0,0,1-.4.32h-32a.4.4,0,0,1-.39-.49l9.16-42.94a35.49,35.49,0,0,0,1.3-7.89c0-3.42-1.73-5.13-5.21-5.13q-4.12,0-9,5.47A27,27,0,0,0,657.28,266l-8,38.28a.41.41,0,0,1-.39.32h-32a.4.4,0,0,1-.39-.49l11-51.59q2.64-12.56,4.54-26a.41.41,0,0,1,.4-.35h31.32a.41.41,0,0,1,.4.44,86.36,86.36,0,0,1-1.51,13H663a48.08,48.08,0,0,1,14.44-11.26,34.1,34.1,0,0,1,15.36-4.14q17,0,18.6,16.33a.38.38,0,0,0,.68.21A45.49,45.49,0,0,1,726,229a35.73,35.73,0,0,1,17.27-4.71Q762.07,224.27,762.06,243.58Z"/></g></g></svg>